<?xml version="1.0" standalone="no"?>
<!DOCTYPE svg PUBLIC "-//W3C//DTD SVG 20010904//EN"
 "http://www.w3.org/TR/2001/REC-SVG-20010904/DTD/svg10.dtd">
<svg version="1.0" xmlns="http://www.w3.org/2000/svg"
 width="500.000000pt" height="200.000000pt" viewBox="0 0 500.000000 200.000000"
 preserveAspectRatio="xMidYMid meet">

<g transform="translate(0.000000,200.000000) scale(0.100000,-0.100000)"
fill="#000000" stroke="none">
<path d="M475 1562 c-89 -2 -112 -6 -122 -19 -18 -24 11 -53 52 -53 43 0 95
-19 95 -35 0 -7 -14 -50 -31 -96 -17 -46 -34 -97 -38 -114 -5 -16 -18 -51 -30
-77 -21 -43 -29 -69 -67 -203 -8 -27 -25 -70 -38 -95 -13 -25 -27 -61 -30 -80
-4 -19 -22 -69 -41 -110 -38 -83 -62 -166 -52 -176 12 -12 58 7 95 40 20 19
63 56 94 82 31 27 80 69 108 93 29 25 77 64 108 87 32 24 86 66 122 94 86 68
186 140 194 140 12 0 6 -40 -20 -122 -14 -46 -36 -121 -50 -168 -14 -47 -36
-109 -50 -138 -57 -123 -18 -122 118 4 57 53 132 120 168 149 71 57 317 292
450 431 47 49 98 100 113 114 16 14 57 50 92 82 34 31 81 68 104 82 71 45 53
61 -84 72 -38 3 -74 10 -80 15 -18 17 -81 10 -101 -12 -19 -21 -18 -21 5 -40
13 -10 33 -19 45 -19 12 0 31 -6 41 -14 18 -13 18 -16 5 -42 -8 -15 -37 -44
-65 -64 -67 -50 -185 -163 -185 -177 0 -6 -17 -25 -37 -43 -21 -18 -112 -105
-202 -194 l-164 -161 8 50 c8 55 27 118 74 245 18 47 53 147 77 222 56 170 75
192 159 182 47 -6 54 -4 64 14 25 47 -42 69 -183 58 -50 -4 -129 -8 -176 -9
-84 -2 -85 -2 -88 -28 -3 -25 1 -28 48 -39 76 -18 76 -13 0 -190 -28 -65 -45
-88 -129 -170 -54 -52 -149 -137 -212 -188 -63 -50 -123 -105 -134 -122 -11
-16 -32 -34 -47 -39 -25 -9 -28 -8 -28 12 0 32 41 157 87 267 22 52 43 109 47
125 4 17 22 64 40 105 19 41 42 95 52 119 24 58 39 71 79 71 54 0 85 16 85 44
0 14 -5 28 -11 32 -13 8 -162 11 -334 6z"/>
<path d="M4055 1539 c-10 -15 19 -38 57 -46 48 -10 53 -26 29 -96 -12 -34 -24
-73 -27 -87 -3 -14 -9 -34 -14 -45 -31 -72 -60 -147 -73 -190 -8 -27 -27 -81
-42 -120 -47 -119 -106 -287 -123 -347 -17 -61 -9 -88 28 -88 23 0 68 53 76
88 4 15 12 34 19 42 7 8 24 42 39 74 72 161 190 317 250 332 66 16 92 -34 89
-176 -1 -95 -4 -112 -33 -175 -38 -82 -64 -121 -90 -135 -17 -9 -23 -4 -45 30
-20 31 -31 40 -54 40 -15 0 -35 -8 -44 -18 -43 -47 0 -102 80 -102 105 0 136
26 209 175 66 135 96 275 75 346 -14 46 -49 84 -87 93 -37 10 -131 -38 -191
-97 -29 -28 -55 -48 -59 -44 -4 3 0 26 9 49 8 24 27 79 42 123 44 125 68 189
77 200 4 5 8 18 8 30 0 11 9 34 20 50 20 30 27 80 13 88 -5 3 -58 8 -119 12
-85 5 -113 4 -119 -6z"/>
<path d="M2762 1498 c4 -12 24 -19 91 -33 38 -8 35 -35 -14 -142 -22 -48 -62
-151 -89 -228 -26 -77 -68 -189 -94 -250 -25 -60 -46 -116 -46 -123 0 -8 -11
-47 -25 -88 -32 -94 -32 -112 0 -120 57 -14 210 71 249 139 32 57 17 62 -41
12 -38 -33 -83 -47 -83 -26 0 5 16 53 36 107 19 55 51 143 70 198 19 54 73
195 120 313 62 155 83 218 75 226 -23 23 -256 37 -249 15z"/>
<path d="M3743 1266 c-17 -14 -43 -50 -59 -81 l-29 -55 -60 3 c-49 2 -60 -1
-63 -15 -2 -13 9 -21 45 -31 33 -10 49 -20 51 -33 1 -10 -20 -71 -48 -134 -27
-62 -50 -119 -50 -126 0 -6 -11 -31 -24 -56 -36 -67 -60 -151 -52 -182 5 -21
12 -26 39 -26 75 1 226 100 263 172 20 38 11 48 -19 20 -13 -12 -27 -22 -31
-22 -5 0 -24 -13 -43 -30 -34 -30 -57 -37 -67 -21 -8 12 33 127 50 142 8 6 14
18 14 26 0 8 14 47 31 86 30 72 37 88 58 140 11 28 12 29 84 25 68 -3 72 -2
75 19 3 18 -4 24 -35 32 -21 6 -48 11 -60 11 -33 0 -36 15 -12 71 34 78 1 114
-58 65z"/>
<path d="M3182 1140 c-122 -55 -228 -235 -239 -405 -4 -62 -1 -76 24 -124 65
-126 203 -118 305 16 85 112 118 200 118 313 0 95 -13 134 -58 183 -42 44 -81
48 -150 17z m144 -76 c15 -22 15 -32 4 -81 -27 -121 -179 -361 -253 -399 -27
-15 -30 -14 -54 8 -22 21 -25 29 -20 78 8 94 107 275 211 388 39 42 87 45 112
6z"/>
<path d="M1949 1125 c-95 -35 -218 -161 -259 -266 -27 -66 -36 -179 -21 -236
6 -23 23 -56 38 -74 24 -28 30 -30 67 -25 76 13 196 88 196 123 0 18 -2 17
-65 -17 -60 -33 -108 -32 -125 1 -18 33 -12 128 12 170 21 38 23 39 79 39 98
0 200 50 244 120 30 48 32 82 4 126 -31 50 -98 66 -170 39z m81 -81 c0 -63
-96 -154 -164 -154 -49 0 -26 48 68 142 61 61 96 66 96 12z"/>
<path d="M2382 1110 c-32 -19 -74 -57 -109 -100 -101 -124 -133 -202 -133
-325 0 -109 40 -167 115 -167 43 0 170 61 170 82 0 17 -8 16 -77 -1 -57 -15
-73 -5 -88 52 -13 48 17 197 57 279 31 64 103 160 120 160 6 0 21 -16 33 -35
36 -58 86 -73 114 -33 43 62 -4 118 -99 118 -37 0 -63 -8 -103 -30z"/>
<path d="M4790 1133 c-37 -15 -99 -76 -110 -108 -11 -33 -9 -172 6 -350 6 -72
-10 -109 -48 -113 -29 -3 -63 35 -69 78 -2 13 -15 30 -27 36 -56 28 -98 -21
-69 -81 27 -57 108 -86 184 -64 56 15 97 67 113 142 12 54 9 261 -5 309 -4 15
-4 44 -1 63 6 31 11 35 37 35 24 0 32 -7 46 -35 31 -65 100 -55 87 12 -3 18
-17 41 -29 53 -23 22 -87 35 -115 23z"/>
</g>
</svg>
