<?xml version="1.0" standalone="no"?>
<!DOCTYPE svg PUBLIC "-//W3C//DTD SVG 20010904//EN"
 "http://www.w3.org/TR/2001/REC-SVG-20010904/DTD/svg10.dtd">
<svg version="1.0" xmlns="http://www.w3.org/2000/svg"
 width="500.000000pt" height="500.000000pt" viewBox="0 0 500.000000 500.000000"
 preserveAspectRatio="xMidYMid meet">

<g transform="translate(0.000000,500.000000) scale(0.100000,-0.100000)"
fill="#000000" stroke="none">
<path d="M735 3020 c-94 -5 -100 -6 -103 -27 -3 -23 0 -25 81 -38 21 -3 41
-13 44 -20 3 -8 -4 -41 -15 -72 -11 -32 -26 -74 -33 -93 -6 -19 -22 -60 -35
-90 -12 -30 -32 -89 -44 -130 -12 -41 -32 -97 -45 -125 -12 -27 -26 -66 -30
-85 -4 -19 -18 -55 -30 -80 -28 -57 -61 -158 -53 -166 12 -12 50 9 111 60 34
29 73 62 87 74 14 12 52 44 85 73 33 28 83 66 110 84 28 18 61 45 75 60 14 15
37 33 51 40 14 8 46 30 70 51 38 32 44 34 47 18 1 -11 -14 -73 -34 -139 -19
-66 -40 -137 -45 -158 -5 -20 -18 -54 -29 -75 -45 -83 -12 -96 64 -24 95 88
151 136 201 176 28 22 151 140 275 261 238 234 308 300 378 354 25 19 40 37
35 42 -5 5 -47 14 -94 19 -46 6 -100 13 -119 16 -27 4 -40 1 -53 -14 -18 -19
-17 -21 5 -36 12 -9 32 -16 43 -16 11 0 27 -4 35 -10 20 -13 -3 -53 -55 -93
-22 -17 -145 -137 -274 -266 -129 -129 -237 -229 -239 -222 -8 23 45 200 89
296 5 11 25 72 45 135 44 142 70 173 137 164 33 -5 46 -2 57 10 11 15 11 19
-3 33 -21 21 -85 25 -247 16 -129 -8 -135 -9 -138 -30 -3 -19 4 -24 43 -34 25
-6 48 -15 50 -19 3 -5 -13 -52 -35 -106 -35 -85 -49 -108 -117 -179 -43 -45
-87 -86 -98 -92 -27 -14 -182 -147 -220 -188 -16 -18 -38 -36 -49 -39 -17 -6
-18 -2 -12 35 4 23 25 90 47 148 23 58 54 140 69 181 39 105 89 221 102 237 6
7 23 13 39 13 44 0 79 17 79 39 0 11 -6 23 -12 27 -15 10 -154 11 -293 4z"/>
<path d="M3870 2995 c0 -8 17 -19 40 -26 64 -19 66 -27 32 -126 -35 -101 -103
-292 -134 -373 -125 -333 -132 -373 -64 -356 20 5 35 28 76 114 74 153 133
250 185 305 38 38 52 47 81 47 51 0 68 -44 62 -165 -3 -79 -8 -99 -42 -168
-25 -54 -45 -82 -63 -90 -20 -9 -27 -9 -30 0 -9 26 -45 63 -62 63 -24 0 -51
-31 -51 -58 0 -53 127 -71 187 -26 63 47 153 277 153 391 0 62 -47 123 -96
123 -32 0 -114 -47 -161 -93 -38 -36 -43 -38 -43 -20 0 12 14 55 30 96 17 42
30 81 30 88 0 14 41 123 70 187 24 51 26 88 4 96 -9 3 -58 6 -110 6 -76 0 -94
-3 -94 -15z"/>
<path d="M2750 2967 c0 -8 19 -17 48 -23 44 -8 47 -11 46 -40 -1 -16 -15 -58
-32 -91 -17 -34 -48 -115 -71 -180 -22 -65 -59 -163 -81 -218 -42 -101 -78
-213 -87 -272 -4 -24 -1 -34 11 -39 48 -18 202 69 227 129 17 40 6 43 -32 9
-40 -35 -79 -50 -79 -30 0 18 124 359 205 562 48 121 64 171 56 179 -12 12
-97 25 -168 26 -30 1 -43 -3 -43 -12z"/>
<path d="M3599 2753 c-15 -15 -36 -47 -49 -69 -22 -41 -23 -42 -74 -40 -64 1
-71 -23 -11 -40 41 -11 56 -34 37 -57 -6 -7 -31 -66 -57 -132 -26 -66 -50
-124 -54 -130 -18 -24 -42 -107 -39 -132 2 -23 8 -29 33 -31 62 -6 195 80 231
149 20 40 6 36 -62 -16 -60 -47 -69 -51 -78 -36 -7 11 23 101 40 121 7 8 16
29 19 45 4 17 13 39 19 50 7 11 23 48 35 83 13 34 30 66 38 71 9 4 35 4 60 0
51 -10 63 -6 63 21 0 21 -19 30 -66 30 -42 0 -51 18 -29 60 35 67 -7 107 -56
53z"/>
<path d="M3115 2654 c-91 -47 -152 -127 -190 -247 -31 -98 -32 -159 -2 -217
30 -61 76 -85 140 -76 106 16 218 184 233 350 5 58 2 79 -14 117 -35 82 -98
109 -167 73z m120 -64 c25 -28 14 -85 -37 -185 -66 -131 -157 -245 -195 -245
-36 0 -56 34 -50 85 12 84 161 339 210 358 26 11 55 6 72 -13z"/>
<path d="M2441 2640 c-79 -37 -153 -116 -206 -220 -36 -70 -47 -207 -21 -258
31 -60 92 -68 177 -24 67 35 78 58 23 47 -99 -20 -119 -2 -109 101 10 109 54
214 124 294 l31 35 19 -25 c39 -50 51 -60 70 -60 51 0 70 77 27 105 -39 26
-86 28 -135 5z"/>
<path d="M2020 2637 c-21 -7 -66 -42 -115 -92 -68 -68 -83 -90 -103 -145 -37
-107 -27 -223 23 -270 24 -23 28 -23 73 -11 59 15 128 55 143 82 16 31 7 32
-49 4 -36 -18 -59 -24 -77 -19 -48 12 -59 88 -24 161 l21 43 56 0 c55 0 132
28 172 62 29 24 60 76 60 98 0 32 -36 87 -63 94 -32 8 -77 6 -117 -7z m88 -60
c9 -44 -95 -147 -147 -147 -30 0 -35 19 -12 44 12 12 21 26 21 32 1 12 40 55
70 76 31 22 64 19 68 -5z"/>
<path d="M4481 2620 c-23 -17 -46 -42 -51 -56 -12 -30 -12 -229 -1 -298 10
-57 -2 -111 -26 -120 -24 -10 -63 21 -70 54 -7 38 -25 52 -60 48 -24 -3 -28
-8 -31 -36 -2 -22 3 -41 15 -54 63 -70 170 -63 221 16 25 38 27 50 30 172 2
72 0 146 -5 165 -14 50 -3 83 29 87 20 2 30 -4 46 -32 12 -20 26 -36 31 -36
47 0 56 56 16 95 -35 36 -90 34 -144 -5z"/>
</g>
</svg>
